<svg width="16" height="14" viewBox="0 0 16 14" fill="none" xmlns="http://www.w3.org/2000/svg">
<path fill-rule="evenodd" clip-rule="evenodd" d="M11.7255 12.9867C12.6345 13.3843 12.9753 12.5511 12.9753 12.5511L15.3803 0.469442C15.3614 -0.344841 14.263 0.147516 14.263 0.147516L0.798965 5.43089C0.798965 5.43089 0.155114 5.65813 0.211924 6.0558C0.268734 6.45347 0.780028 6.64284 0.780028 6.64284L4.16972 7.77905C4.16972 7.77905 5.1923 11.1309 5.40061 11.7747C5.58998 12.3996 5.76041 12.4186 5.76041 12.4186C5.94978 12.4943 6.12021 12.3618 6.12021 12.3618L8.31688 10.3734L11.7255 12.9867ZM12.3125 2.60927C12.3125 2.60927 12.786 2.32522 12.767 2.60927C12.767 2.60927 12.8428 2.64714 12.5966 2.91226C12.3694 3.1395 7.01023 7.94945 6.29064 8.5933C6.23382 8.63117 6.19595 8.68798 6.19595 8.76373L5.98765 10.5438C5.94977 10.7332 5.70359 10.7521 5.64678 10.5817L4.75675 7.66539C4.71888 7.55177 4.75675 7.41922 4.87037 7.34347L12.3125 2.60927Z" fill="#F47D0E"/>
</svg>
