<svg width="50" height="50" viewBox="0 0 50 50" fill="none" xmlns="http://www.w3.org/2000/svg">
<path d="M32.0312 39.8438H33.5938V46.0938H32.0312V39.8438Z" fill="#DFAB26"/>
<path d="M35.1562 39.8438H36.7188V46.0938H35.1562V39.8438Z" fill="#DFAB26"/>
<path d="M42.9688 28.1172V11.7188H41.4062V3.76484L39.8438 4.025V2.34375H38.2812V4.28594L36.7188 4.54609V0.78125H35.1562V4.80703L33.5938 5.06719V2.34375H32.0312V5.32734L30.4688 5.5875V11.7188H28.9062V19.5312H22.6562V8.59375H19.5312V3.90625H17.9688V0.78125H10.1562V3.90625H8.59375V8.59375H5.46875V23.1914C3.85 23.9641 2.67109 25.5055 2.40625 27.3438H0.78125V49.2188H49.2188V27.2242L42.9688 28.1172ZM32.0312 6.91172L39.8438 5.60938V11.7188H32.0312V6.91172ZM30.4688 13.2812H41.4062V28.3406L36.7188 29.0102V33.0734L34.375 29.9484L32.0312 33.0734V19.5312H30.4688V13.2812ZM30.4688 22.6562H19.5312V21.0938H30.4688V22.6562ZM30.4688 38.2812H38.2812V47.6562H30.4688V38.2812ZM31.25 36.7188L34.375 32.5523L37.5 36.7188H31.25ZM11.7188 2.34375H16.4062V3.90625H11.7188V2.34375ZM10.1562 5.46875H17.9688V8.59375H10.1562V5.46875ZM7.03125 10.1562H21.0938V19.5312H17.9688V23.1914C17.257 22.8523 16.4641 22.6562 15.625 22.6562H7.8125C7.54688 22.6562 7.2875 22.682 7.03125 22.7188V10.1562ZM7.8125 24.2188H15.625C17.5109 24.2188 19.0891 25.5633 19.4523 27.3438H3.98516C4.34844 25.5633 5.92656 24.2188 7.8125 24.2188ZM21.0938 28.9062V30.4688H2.34375V28.9062H21.0938ZM17.9688 42.9688H14.8438V39.8438H17.9688V42.9688ZM13.2812 42.9688H10.1562V39.8438H13.2812V42.9688ZM13.2812 44.5312V47.6562H10.1562V44.5312H13.2812ZM14.8438 44.5312H17.9688V47.6562H14.8438V44.5312ZM17.9688 38.2812H14.8438V35.1562H17.9688V38.2812ZM13.2812 38.2812H10.1562V35.1562H13.2812V38.2812ZM8.59375 38.2812H5.46875V35.1562H8.59375V38.2812ZM5.46875 39.8438H8.59375V42.9688H5.46875V39.8438ZM5.46875 44.5312H8.59375V47.6562H5.46875V44.5312ZM19.5312 47.6562V33.5938H3.90625V47.6562H2.34375V32.0312H21.0938V47.6562H19.5312ZM21.0312 27.3438C20.8625 26.1703 20.3234 25.1148 19.5312 24.3055V24.2188H30.4688V35.1562L28.9062 37.2398V47.6562H22.6562V27.3438H21.0312ZM47.6562 47.6562H39.8438V37.2398L38.2812 35.1562V30.3648L47.6562 29.0258V47.6562Z" fill="#DFAB26"/>
<path d="M24.2188 25.7812H25.7812V27.3438H24.2188V25.7812Z" fill="#DFAB26"/>
<path d="M24.2188 44.5312H25.7812V46.0938H24.2188V44.5312Z" fill="#DFAB26"/>
<path d="M24.2188 28.9062H25.7812V30.4688H24.2188V28.9062Z" fill="#DFAB26"/>
<path d="M24.2188 41.4062H25.7812V42.9688H24.2188V41.4062Z" fill="#DFAB26"/>
<path d="M24.2188 35.1562H25.7812V36.7188H24.2188V35.1562Z" fill="#DFAB26"/>
<path d="M24.2188 32.0312H25.7812V33.5938H24.2188V32.0312Z" fill="#DFAB26"/>
<path d="M24.2188 38.2812H25.7812V39.8438H24.2188V38.2812Z" fill="#DFAB26"/>
<path d="M27.3438 32.0312H28.9062V33.5938H27.3438V32.0312Z" fill="#DFAB26"/>
<path d="M27.3438 28.9062H28.9062V30.4688H27.3438V28.9062Z" fill="#DFAB26"/>
<path d="M27.3438 25.7812H28.9062V27.3438H27.3438V25.7812Z" fill="#DFAB26"/>
<path d="M44.5312 44.5312H46.0938V46.0938H44.5312V44.5312Z" fill="#DFAB26"/>
<path d="M44.5312 38.2812H46.0938V39.8438H44.5312V38.2812Z" fill="#DFAB26"/>
<path d="M44.5312 41.4062H46.0938V42.9688H44.5312V41.4062Z" fill="#DFAB26"/>
<path d="M44.5312 35.1562H46.0938V36.7188H44.5312V35.1562Z" fill="#DFAB26"/>
<path d="M44.5312 32.0312H46.0938V33.5938H44.5312V32.0312Z" fill="#DFAB26"/>
<path d="M41.4062 41.4062H42.9688V42.9688H41.4062V41.4062Z" fill="#DFAB26"/>
<path d="M41.4062 32.0312H42.9688V33.5938H41.4062V32.0312Z" fill="#DFAB26"/>
<path d="M41.4062 38.2812H42.9688V39.8438H41.4062V38.2812Z" fill="#DFAB26"/>
<path d="M41.4062 44.5312H42.9688V46.0938H41.4062V44.5312Z" fill="#DFAB26"/>
<path d="M41.4062 35.1562H42.9688V36.7188H41.4062V35.1562Z" fill="#DFAB26"/>
<path d="M17.9688 11.7188H19.5312V13.2812H17.9688V11.7188Z" fill="#DFAB26"/>
<path d="M14.8438 11.7188H16.4062V13.2812H14.8438V11.7188Z" fill="#DFAB26"/>
<path d="M8.59375 11.7188H10.1562V13.2812H8.59375V11.7188Z" fill="#DFAB26"/>
<path d="M11.7188 11.7188H13.2812V13.2812H11.7188V11.7188Z" fill="#DFAB26"/>
<path d="M11.7188 14.8438H13.2812V16.4062H11.7188V14.8438Z" fill="#DFAB26"/>
<path d="M17.9688 14.8438H19.5312V16.4062H17.9688V14.8438Z" fill="#DFAB26"/>
<path d="M8.59375 14.8438H10.1562V16.4062H8.59375V14.8438Z" fill="#DFAB26"/>
<path d="M14.8438 14.8438H16.4062V16.4062H14.8438V14.8438Z" fill="#DFAB26"/>
<path d="M8.59375 17.9688H10.1562V19.5312H8.59375V17.9688Z" fill="#DFAB26"/>
<path d="M11.7188 17.9688H13.2812V19.5312H11.7188V17.9688Z" fill="#DFAB26"/>
<path d="M14.8438 17.9688H16.4062V19.5312H14.8438V17.9688Z" fill="#DFAB26"/>
<path d="M38.2812 14.8438H39.8438V16.4062H38.2812V14.8438Z" fill="#DFAB26"/>
<path d="M35.1562 14.8438H36.7188V16.4062H35.1562V14.8438Z" fill="#DFAB26"/>
<path d="M32.0312 14.8438H33.5938V16.4062H32.0312V14.8438Z" fill="#DFAB26"/>
<path d="M38.2812 17.9688H39.8438V19.5312H38.2812V17.9688Z" fill="#DFAB26"/>
<path d="M32.0312 17.9688H33.5938V19.5312H32.0312V17.9688Z" fill="#DFAB26"/>
<path d="M35.1562 17.9688H36.7188V19.5312H35.1562V17.9688Z" fill="#DFAB26"/>
<path d="M35.1562 27.3438H36.7188V28.9062H35.1562V27.3438Z" fill="#DFAB26"/>
<path d="M35.1562 24.2188H36.7188V25.7812H35.1562V24.2188Z" fill="#DFAB26"/>
<path d="M35.1562 21.0938H36.7188V22.6562H35.1562V21.0938Z" fill="#DFAB26"/>
<path d="M38.2812 24.2188H39.8438V25.7812H38.2812V24.2188Z" fill="#DFAB26"/>
<path d="M38.2812 21.0938H39.8438V22.6562H38.2812V21.0938Z" fill="#DFAB26"/>
</svg>
