<svg width="50" height="50" viewBox="0 0 50 50" fill="none" xmlns="http://www.w3.org/2000/svg">
<g clip-path="url(#clip0)">
<path d="M7.29146 8.31836C5.56557 8.31836 4.16644 9.71749 4.16644 11.4434V19.7767H6.24975V11.4434C6.24975 10.8681 6.71616 10.4017 7.29146 10.4017H32.2916V8.31836H7.29146Z" fill="white"/>
<path d="M7.29146 39.5684C6.71616 39.5684 6.24975 39.102 6.24975 38.5267V28.11H4.16644V38.5267C4.16644 40.2526 5.56557 41.6517 7.29146 41.6517H17.7082V39.5684H7.29146Z" fill="white"/>
<path d="M33.0281 42.2548L7.73001 16.9568C7.32327 16.5501 6.66389 16.5501 6.25706 16.9568L0.304982 22.9089C-0.101661 23.3157 -0.101661 23.9751 0.304982 24.3819L25.603 49.6799C25.7983 49.8753 26.0633 49.985 26.3395 49.985C26.6157 49.9849 26.8806 49.8752 27.0759 49.6799L33.028 43.7278C33.4347 43.3209 33.4347 42.6616 33.0281 42.2548ZM26.3395 47.4705L2.51437 23.6454L6.99358 19.1662L30.8187 42.9914L26.3395 47.4705Z" fill="white"/>
<path d="M45.8333 39.5684H30.2083V41.6517H41.6666V46.8601C41.6666 47.4353 42.133 47.9018 42.7083 47.9018H45.8333C48.1345 47.9018 50 46.0363 50 43.735C50 41.4339 48.1345 39.5684 45.8333 39.5684ZM45.8333 45.8184H43.75V41.6517H45.8333C46.9839 41.6517 47.9166 42.5844 47.9166 43.735C47.9166 44.8857 46.9839 45.8184 45.8333 45.8184Z" fill="white"/>
<path d="M45.8333 8.31836H40.6249V10.4017H45.8333C46.9838 10.4017 47.9166 11.3344 47.9166 12.485V43.7351H49.9999V12.485C50 10.1838 48.1344 8.31836 45.8333 8.31836Z" fill="white"/>
<path d="M19.0554 29.4567L15.9302 32.582L17.4033 34.0551L20.5285 30.9298L19.0554 29.4567Z" fill="white"/>
<path d="M14.8889 25.29L11.7636 28.4153L13.2367 29.8884L16.362 26.7631L14.8889 25.29Z" fill="white"/>
<path d="M23.2198 33.6234L20.0945 36.7487L21.5676 38.2218L24.6929 35.0965L23.2198 33.6234Z" fill="white"/>
<path d="M27.3884 37.7921L24.2631 40.9174L25.7362 42.3905L28.8615 39.2652L27.3884 37.7921Z" fill="white"/>
<path d="M10.7193 21.1233L7.59406 24.2485L9.06716 25.7216L12.1924 22.5964L10.7193 21.1233Z" fill="white"/>
<path d="M44.9312 2.32661L43.4916 0.887052C42.2735 -0.275746 40.3565 -0.275746 39.1384 0.887052L23.2988 16.7267C22.8922 17.1334 22.8922 17.7928 23.2988 18.1996L27.6187 22.5195C27.8135 22.7156 28.0787 22.8254 28.3551 22.8246C28.6314 22.8245 28.8962 22.7148 29.0915 22.5195L44.9312 6.67975C44.9317 6.67926 44.9322 6.67877 44.9327 6.67829C46.134 5.47623 46.1333 3.52788 44.9312 2.32661ZM43.4593 5.20582L28.3551 20.31L25.5082 17.4631L40.6124 2.35991C41.0058 1.98403 41.6253 1.98403 42.0187 2.35991L43.4593 3.79849C43.4594 3.79868 43.4596 3.79878 43.4598 3.79898C43.8481 4.18755 43.8479 4.81744 43.4593 5.20582Z" fill="white"/>
<path d="M28.0207 20.7954L23.5249 22.2964L25.026 17.7933L23.0468 17.1339L20.8863 23.6141C20.851 23.7204 20.8329 23.8316 20.8329 23.9435C20.833 24.5188 21.2995 24.9851 21.8748 24.9849C21.985 24.9853 22.0947 24.9684 22.1998 24.9349L28.68 22.7745L28.0207 20.7954Z" fill="white"/>
<path d="M37.7309 3.76603L36.2578 5.23914L40.5777 9.55909L42.0508 8.08598L37.7309 3.76603Z" fill="white"/>
<path d="M37.4999 22.9017H21.8749V24.985H37.4999V22.9017Z" fill="white"/>
<path d="M41.6666 22.9017H39.5833V24.985H41.6666V22.9017Z" fill="white"/>
<path d="M45.8333 22.9017H43.75V24.985H45.8333V22.9017Z" fill="white"/>
</g>
<defs>
<clipPath id="clip0">
<rect width="50" height="50" fill="white"/>
</clipPath>
</defs>
</svg>
