<svg width="50" height="50" viewBox="0 0 50 50" fill="none" xmlns="http://www.w3.org/2000/svg">
<g clip-path="url(#clip0)">
<path d="M36.6278 13.8605C36.4462 13.6788 36.1943 13.5743 35.9374 13.5743C35.6806 13.5743 35.4286 13.6788 35.247 13.8605C35.0654 14.0421 34.9609 14.2931 34.9609 14.5509C34.9609 14.8077 35.0653 15.0597 35.247 15.2413C35.4287 15.423 35.6806 15.5275 35.9374 15.5275C36.1943 15.5275 36.4462 15.423 36.6278 15.2413C36.8094 15.0597 36.914 14.8077 36.914 14.5509C36.914 14.2941 36.8095 14.0421 36.6278 13.8605Z" fill="#DFAB26"/>
<path d="M14.6484 27.5391H6.83592C6.29666 27.5391 5.85936 27.9763 5.85936 28.5157V36.3282C5.85936 36.8675 6.29666 37.3047 6.83592 37.3047H14.6484C15.1877 37.3047 15.625 36.8675 15.625 36.3282V28.5157C15.625 27.9763 15.1878 27.5391 14.6484 27.5391ZM13.6718 35.3516H7.81248V29.4922H13.6718V35.3516Z" fill="#DFAB26"/>
<path d="M49.3971 20.4845C49.0321 20.3332 48.612 20.417 48.3328 20.6961L38.3819 30.6471C38.3818 30.6473 38.3816 30.6474 38.3814 30.6476C38.3812 30.6478 38.3811 30.6479 38.381 30.6481L26.781 42.248C26.7808 42.2482 26.7807 42.2483 26.7805 42.2485C26.7803 42.2487 26.7802 42.2488 26.78 42.249L20.6961 48.3329C20.4169 48.6122 20.3334 49.0323 20.4844 49.3972C20.6356 49.7621 20.9917 50 21.3867 50H49.0233C49.5626 50 49.9999 49.5628 49.9999 49.0234V21.3867C49.9999 20.9918 49.762 20.6357 49.3971 20.4845ZM48.0468 48.0469H23.7444L27.471 44.3202L28.4033 45.2524C28.594 45.4432 28.8439 45.5385 29.0938 45.5385C29.3437 45.5385 29.5936 45.4432 29.7843 45.2524C30.1657 44.8711 30.1657 44.2527 29.7843 43.8713L28.8521 42.9391L31.338 40.4531L32.2701 41.3853C32.4609 41.576 32.7108 41.6713 32.9607 41.6713C33.2106 41.6713 33.4605 41.5759 33.6512 41.3853C34.0325 41.0039 34.0325 40.3855 33.6512 40.0042L32.719 39.072L35.2049 36.586L36.1371 37.5183C36.3279 37.709 36.5778 37.8043 36.8277 37.8043C37.0776 37.8043 37.3275 37.709 37.5182 37.5183C37.8995 37.1369 37.8995 36.5186 37.5182 36.1371L36.586 35.2049L39.0718 32.719L40.004 33.6513C40.1947 33.842 40.4446 33.9373 40.6945 33.9373C40.9444 33.9373 41.1943 33.842 41.3851 33.6513C41.7664 33.2699 41.7664 32.6516 41.3851 32.2701L40.4528 31.3379L42.9388 28.852L43.8709 29.7841C44.0616 29.9748 44.3115 30.0701 44.5614 30.0701C44.8113 30.0701 45.0612 29.9747 45.252 29.7841C45.6333 29.4027 45.6333 28.7844 45.252 28.403L44.3197 27.4708L48.0468 23.7443V48.0469Z" fill="#DFAB26"/>
<path d="M44.5143 32.2728C44.1493 32.1215 43.7292 32.2052 43.45 32.4844L32.4843 43.4502C32.2051 43.7295 32.1214 44.1495 32.2726 44.5145C32.4238 44.8794 32.7798 45.1173 33.1748 45.1173H44.1405C44.6798 45.1173 45.1171 44.6801 45.1171 44.1407V33.175C45.1171 32.7801 44.8792 32.4239 44.5143 32.2728ZM43.164 43.1642H35.5325L43.164 35.5326V43.1642Z" fill="#DFAB26"/>
<path d="M45.2208 14.5765C44.9519 14.3077 44.5517 14.2192 44.1944 14.35L37.5263 16.7919C37.393 16.8407 37.272 16.918 37.1715 17.0184L35.2966 18.8932L23.0539 6.6504C22.8707 6.4673 22.6224 6.36437 22.3634 6.36437C22.1044 6.36437 21.856 6.4673 21.6728 6.6504L6.93626 21.387H3.33441L22.3634 2.35793L32.8056 12.8002C33.1871 13.1815 33.8052 13.1815 34.1868 12.8002C34.5681 12.4188 34.5681 11.8005 34.1868 11.419L23.054 0.286254C22.6726 -0.0950926 22.0544 -0.0950926 21.6728 0.286254L0.286173 21.6729C0.00697402 21.9522 -0.0766196 22.3722 0.0744544 22.7372C0.225626 23.1022 0.58168 23.3401 0.976699 23.3401H1.95326V49.0237C1.95326 49.563 2.39056 50.0002 2.92982 50.0002H18.4558C18.995 50.0002 19.4323 49.563 19.4323 49.0237C19.4323 48.4843 18.995 48.0471 18.4558 48.0471H3.90638V23.3401H7.34075C7.59973 23.3401 7.84807 23.2372 8.03127 23.0541L22.3634 8.72198L33.9155 20.2742L19.4337 34.7561V25.9768H26.2696C26.8089 25.9768 27.2462 25.5396 27.2462 25.0003C27.2462 24.4609 26.8089 24.0237 26.2696 24.0237H18.4571C17.9179 24.0237 17.4806 24.4609 17.4806 25.0003V36.3284C17.4806 36.4423 17.5011 36.5511 17.5369 36.6528L16.662 37.5277C15.1161 39.0736 15.1161 41.589 16.662 43.1349C17.4351 43.908 18.4502 44.2945 19.4656 44.2944C20.4809 44.2944 21.4964 43.9079 22.2692 43.135L30.5048 34.8995C30.8861 34.5181 30.8861 33.8998 30.5048 33.5184C30.1234 33.1371 29.5053 33.1371 29.1236 33.5184L22.8842 39.7579L20.0392 36.9128L37.8816 19.0704L40.7266 21.9154L33.9088 28.7334C33.5274 29.1147 33.5274 29.7331 33.9088 30.1144C34.2902 30.4958 34.9084 30.4958 35.2899 30.1144L42.7788 22.6256C42.8791 22.5252 42.9564 22.4041 43.0051 22.2709L45.4471 15.6028C45.5779 15.2458 45.4896 14.8453 45.2208 14.5765ZM21.5032 41.1388L20.8882 41.7539C20.5082 42.1338 20.0031 42.3431 19.4657 42.3431C18.9283 42.3431 18.4231 42.1338 18.0433 41.7539C17.6632 41.3739 17.454 40.8687 17.454 40.3314C17.454 39.7941 17.6631 39.2888 18.0432 38.9088L18.6582 38.2938L21.5032 41.1388ZM41.7077 20.1341L39.663 18.0893L42.8893 16.9078L41.7077 20.1341Z" fill="#DFAB26"/>
<path d="M32.8797 31.1427C32.6982 30.9611 32.4462 30.8566 32.1894 30.8566C31.9326 30.8566 31.6806 30.9611 31.499 31.1427C31.3173 31.3253 31.2128 31.5763 31.2128 31.8331C31.2128 32.0909 31.3172 32.3419 31.499 32.5245C31.6806 32.7062 31.9316 32.8097 32.1894 32.8097C32.4462 32.8097 32.6982 32.7062 32.8797 32.5245C33.0614 32.3419 33.166 32.09 33.166 31.8331C33.166 31.5763 33.0615 31.3253 32.8797 31.1427Z" fill="#DFAB26"/>
<path d="M22.3632 14.7462C20.3171 14.7462 18.6523 16.411 18.6523 18.4571C18.6523 20.5033 20.3171 22.1681 22.3632 22.1681C24.4094 22.1681 26.0742 20.5033 26.0742 18.4571C26.0742 16.411 24.4094 14.7462 22.3632 14.7462ZM22.3632 20.215C21.394 20.215 20.6054 19.4265 20.6054 18.4571C20.6054 17.4879 21.394 16.6993 22.3632 16.6993C23.3325 16.6993 24.1211 17.4879 24.1211 18.4571C24.1211 19.4264 23.3325 20.215 22.3632 20.215Z" fill="#DFAB26"/>
</g>
<defs>
<clipPath id="clip0">
<rect width="50" height="50" fill="white"/>
</clipPath>
</defs>
</svg>
