<svg width="50" height="50" viewBox="0 0 50 50" fill="none" xmlns="http://www.w3.org/2000/svg">
<path d="M46.4664 36.7188L49.1625 29.9781L47.7117 29.3977L44.7836 36.7188H44.5312V27.3438H42.9688V14.8438H39.8438V11.7188H38.2812V14.8438H36.7188V10.1562H35.1562V14.8438H33.5938V11.7188H32.0312V14.8438H28.9062V24.2188H25.7812V28.2258C23.9398 25.9648 21.4266 24.318 18.5742 23.5633L18.2195 22.5C19.3586 22.1852 20.2945 21.3797 20.7625 20.3125H21.0938C22.8172 20.3125 24.2188 18.9109 24.2188 17.1875V13.2812C25.0805 13.2812 25.7812 12.5805 25.7812 11.7188V10.1562C25.7812 9.29453 25.0805 8.59375 24.2188 8.59375H24.0828C23.3352 4.09375 19.4867 0.78125 14.8438 0.78125C10.2008 0.78125 6.35234 4.09375 5.60469 8.59375H5.46875C4.60703 8.59375 3.90625 9.29453 3.90625 10.1562V11.7188C3.90625 12.5805 4.60703 13.2812 5.46875 13.2812V17.1875C5.46875 18.9109 6.87031 20.3125 8.59375 20.3125H8.925C9.39375 21.3797 10.3289 22.1859 11.468 22.5L11.1133 23.5633C5.00781 25.1734 0.78125 30.6312 0.78125 36.9859V37.5C0.78125 40.8312 2.69062 43.7195 5.46875 45.1453V49.2188H28.9062V42.9688H31.3289C31.6922 44.7492 33.2695 46.0938 35.1562 46.0938C37.043 46.0938 38.6203 44.7492 38.9836 42.9688H42.9047C46.0414 42.9688 48.693 40.7227 49.2086 37.6289L49.3602 36.7188H46.4664ZM36.7188 36.7188V28.9062H42.9688V36.7188H36.7188ZM30.4688 16.4062H41.4062V27.3438H36.7188V24.2188H30.4688V16.4062ZM35.1562 25.7812V36.7188H27.3438V25.7812H35.1562ZM25.7812 30.9969V36.7188H25.5289L22.6 29.3969L21.1492 29.9773L23.8461 36.7188H20.9531L21.1047 37.6289C21.3117 38.8711 21.8672 39.9734 22.6562 40.8516V47.6562H18.75V46.0938C20.0422 46.0938 21.0938 45.0422 21.0938 43.75C21.0938 42.4578 20.0422 41.4062 18.75 41.4062V25.2555C21.7289 26.2023 24.2484 28.2461 25.7812 30.9969ZM16.6242 22.6562L17.1063 24.1031L14.8438 27.4977L12.5805 24.1031L13.0633 22.6562H16.6242ZM17.1875 30.5852L15.8109 28.8641L17.1875 26.7992V30.5852ZM12.5 30.5852V26.7992L13.8766 28.8641L12.5 30.5852ZM12.5 33.0859L14.8438 30.1562L17.1875 33.0859V39.9813C16.9422 39.8945 16.6805 39.8438 16.4062 39.8438H15.4914C14.8656 39.8438 14.2766 40.0875 13.8336 40.5305L13.032 41.332L12.5 41.2133V33.0859ZM14.0625 42.5109L14.9383 41.6352C15.0859 41.4875 15.2828 41.4062 15.4914 41.4062H16.4062C16.8367 41.4062 17.1875 41.757 17.1875 42.1875V42.9688H18.75C19.1805 42.9688 19.5312 43.3195 19.5312 43.75C19.5312 44.1805 19.1805 44.5312 18.75 44.5312H14.0625V42.5109ZM17.1875 46.0938V47.6562H12.5V46.0938H17.1875ZM21.0938 18.75V15.625C21.9555 15.625 22.6562 16.3258 22.6562 17.1875C22.6562 18.0492 21.9555 18.75 21.0938 18.75ZM22.6562 14.4969C22.1945 14.2281 21.6656 14.0625 21.0938 14.0625V13.2812H22.6562V14.4969ZM22.4969 8.59375H17.1875V2.70156C19.8711 3.53359 21.9297 5.75938 22.4969 8.59375ZM15.625 2.38281V8.59375H14.0625V2.38281C14.3195 2.35781 14.5797 2.34375 14.8438 2.34375C15.1078 2.34375 15.368 2.35781 15.625 2.38281ZM12.5 2.70156V8.59375H7.19063C7.75781 5.75938 9.81641 3.53359 12.5 2.70156ZM5.46797 10.1562H5.46875H24.2188V11.7188H5.46875L5.46797 10.1562ZM8.59375 13.2812V14.0625C8.02187 14.0625 7.49297 14.2281 7.03125 14.4969V13.2812H8.59375ZM7.03125 17.1875C7.03125 16.3258 7.73203 15.625 8.59375 15.625V18.75C7.73203 18.75 7.03125 18.0492 7.03125 17.1875ZM10.1562 18.75V13.2812H19.5312V18.75C19.5312 20.0422 18.4797 21.0938 17.1875 21.0938H12.5C11.2078 21.0938 10.1562 20.0422 10.1562 18.75ZM2.34375 37.5V36.9859C2.34375 31.5484 5.83125 26.8547 10.9375 25.2445V40.8672L10.0898 40.6789C8.28906 40.2781 7.03125 38.7102 7.03125 36.8648V33.5938H5.46875V36.8648C5.46875 39.4477 7.22969 41.643 9.75078 42.2031L12.5 42.8141V44.5312H9.375C5.49844 44.5312 2.34375 41.3766 2.34375 37.5ZM7.03125 45.7609C7.77734 45.9727 8.56172 46.0938 9.375 46.0938H10.9375V47.6562H7.03125V45.7609ZM24.2188 47.6562V42.1203C25.143 42.6516 26.2109 42.9547 27.3438 42.9664V47.6562H24.2188ZM35.1562 44.5312C33.8641 44.5312 32.8125 43.4797 32.8125 42.1875C32.8125 41.757 33.1633 41.4062 33.5938 41.4062H36.7188C37.1492 41.4062 37.5 41.757 37.5 42.1875C37.5 43.4797 36.4484 44.5312 35.1562 44.5312ZM42.9039 41.4062H38.918C38.5945 40.4992 37.7352 39.8438 36.718 39.8438H33.593C32.5758 39.8438 31.7164 40.4992 31.393 41.4062H27.407C25.357 41.4062 23.582 40.1367 22.8875 38.2812H47.4219C46.7289 40.1367 44.9547 41.4062 42.9039 41.4062Z" fill="#DFAB26"/>
<path d="M38.2812 17.9688H39.8438V19.5312H38.2812V17.9688Z" fill="#DFAB26"/>
<path d="M35.1562 17.9688H36.7188V19.5312H35.1562V17.9688Z" fill="#DFAB26"/>
<path d="M32.0312 17.9688H33.5938V19.5312H32.0312V17.9688Z" fill="#DFAB26"/>
<path d="M38.2812 21.0938H39.8438V22.6562H38.2812V21.0938Z" fill="#DFAB26"/>
<path d="M32.0312 21.0938H33.5938V22.6562H32.0312V21.0938Z" fill="#DFAB26"/>
<path d="M35.1562 21.0938H36.7188V22.6562H35.1562V21.0938Z" fill="#DFAB26"/>
<path d="M38.2812 24.2188H39.8438V25.7812H38.2812V24.2188Z" fill="#DFAB26"/>
<path d="M28.9062 27.3438H30.4688V35.1562H28.9062V27.3438Z" fill="#DFAB26"/>
<path d="M32.0312 27.3438H33.5938V35.1562H32.0312V27.3438Z" fill="#DFAB26"/>
<path d="M38.2812 30.4688H41.4062V32.0312H38.2812V30.4688Z" fill="#DFAB26"/>
<path d="M38.2812 33.5938H41.4062V35.1562H38.2812V33.5938Z" fill="#DFAB26"/>
</svg>
