<svg width="20" height="20" viewBox="0 0 20 20" fill="none" xmlns="http://www.w3.org/2000/svg">
<path d="M9.99969 0C5.94005 0 2.6369 3.30314 2.6369 7.3632C2.6369 8.42222 2.85366 9.43334 3.28083 10.3687C5.12173 14.3971 8.65125 18.6501 9.68939 19.8575C9.76717 19.9478 9.88056 19.9998 9.99989 19.9998C10.1192 19.9998 10.2326 19.9478 10.3104 19.8575C11.3481 18.6503 14.8776 14.3975 16.7192 10.3687C17.1465 9.43334 17.3631 8.42222 17.3631 7.3632C17.3627 3.30314 14.0595 0 9.99969 0ZM9.99969 11.1877C7.89086 11.1877 6.17502 9.47182 6.17502 7.36299C6.17502 5.25396 7.89086 3.53812 9.99969 3.53812C12.1085 3.53812 13.8244 5.25396 13.8244 7.36299C13.8246 9.47182 12.1087 11.1877 9.99969 11.1877Z" fill="#F47D0E"/>
</svg>
