<svg width="20" height="20" viewBox="0 0 20 20" fill="none" xmlns="http://www.w3.org/2000/svg">
<g clip-path="url(#clip0)">
<path d="M15.8063 12.3892C15.3968 11.9628 14.903 11.7349 14.3796 11.7349C13.8604 11.7349 13.3623 11.9586 12.9359 12.385L11.602 13.7146C11.4923 13.6555 11.3825 13.6007 11.277 13.5458C11.1251 13.4698 10.9815 13.398 10.8591 13.3221C9.60967 12.5285 8.47418 11.4943 7.38513 10.1562C6.85749 9.48926 6.50291 8.92785 6.24542 8.358C6.59156 8.04141 6.91236 7.71216 7.22473 7.39558C7.34292 7.27739 7.46111 7.15497 7.5793 7.03678C8.46574 6.15034 8.46574 5.00219 7.5793 4.11576L6.42693 2.96339C6.29608 2.83253 6.161 2.69745 6.03437 2.56238C5.7811 2.30067 5.51517 2.03051 5.24079 1.77725C4.83134 1.37202 4.34169 1.15674 3.82671 1.15674C3.31173 1.15674 2.81364 1.37202 2.39153 1.77725C2.38731 1.78147 2.38731 1.78147 2.38308 1.78569L0.947898 3.23354C0.407592 3.77384 0.0994492 4.43234 0.031911 5.19637C-0.0693963 6.42894 0.293621 7.57709 0.572217 8.32845C1.25604 10.1731 2.27756 11.8826 3.80139 13.7146C5.65024 15.9223 7.87478 17.6656 10.4159 18.894C11.3868 19.3541 12.6827 19.8986 14.1305 19.9915C14.2192 19.9957 14.312 19.9999 14.3964 19.9999C15.3715 19.9999 16.1904 19.6495 16.832 18.9531C16.8363 18.9446 16.8447 18.9404 16.8489 18.9319C17.0684 18.666 17.3217 18.4254 17.5876 18.1679C17.7691 17.9949 17.9549 17.8133 18.1364 17.6234C18.5543 17.1886 18.7738 16.6821 18.7738 16.1629C18.7738 15.6395 18.55 15.1371 18.1237 14.715L15.8063 12.3892ZM17.3175 16.834C17.3132 16.834 17.3132 16.8383 17.3175 16.834C17.1528 17.0113 16.984 17.1717 16.8025 17.349C16.5281 17.6107 16.2495 17.8851 15.9878 18.1932C15.5615 18.6491 15.0592 18.8644 14.4007 18.8644C14.3373 18.8644 14.2698 18.8644 14.2065 18.8602C12.9528 18.78 11.7878 18.2903 10.914 17.8724C8.52484 16.7158 6.42693 15.0738 4.6836 12.9928C3.2442 11.2579 2.28178 9.65389 1.64439 7.93166C1.25182 6.8806 1.1083 6.0617 1.17162 5.28923C1.21383 4.79536 1.40378 4.38591 1.75413 4.03555L3.19354 2.59615C3.40038 2.40197 3.61988 2.29645 3.83516 2.29645C4.10109 2.29645 4.31637 2.45685 4.45144 2.59192C4.45566 2.59615 4.45988 2.60037 4.4641 2.60459C4.72159 2.84519 4.96642 3.09424 5.22391 3.36017C5.35476 3.49525 5.48984 3.63032 5.62492 3.76962L6.77729 4.92199C7.22473 5.36943 7.22473 5.7831 6.77729 6.23055C6.65487 6.35296 6.53668 6.47537 6.41427 6.59356C6.05969 6.95658 5.722 7.29427 5.35476 7.62352C5.34632 7.63196 5.33788 7.63618 5.33366 7.64463C4.97064 8.00764 5.03818 8.36222 5.11416 8.60282C5.11838 8.61549 5.1226 8.62815 5.12682 8.64081C5.42652 9.36685 5.84864 10.0507 6.49025 10.8654L6.49447 10.8696C7.65951 12.3048 8.88786 13.4234 10.2428 14.2803C10.4159 14.39 10.5932 14.4786 10.762 14.5631C10.914 14.6391 11.0575 14.7108 11.1799 14.7868C11.1968 14.7952 11.2137 14.8079 11.2306 14.8163C11.3741 14.8881 11.5092 14.9219 11.6485 14.9219C11.9988 14.9219 12.2183 14.7024 12.2901 14.6306L13.7337 13.187C13.8772 13.0435 14.1052 12.8704 14.3711 12.8704C14.6328 12.8704 14.8481 13.035 14.979 13.1785C14.9832 13.1828 14.9832 13.1828 14.9874 13.187L17.3132 15.5128C17.748 15.9434 17.748 16.3866 17.3175 16.834Z" fill="#F47D0E"/>
<path d="M10.8085 4.7574C11.9144 4.94313 12.919 5.46656 13.7211 6.26857C14.5231 7.07059 15.0423 8.07522 15.2322 9.18116C15.2787 9.45975 15.5193 9.65392 15.7936 9.65392C15.8274 9.65392 15.857 9.6497 15.8907 9.64548C16.2031 9.59483 16.4099 9.29935 16.3593 8.98699C16.1313 7.64888 15.4982 6.42898 14.5315 5.46233C13.5649 4.49569 12.345 3.86252 11.0069 3.63458C10.6945 3.58393 10.4032 3.79076 10.3484 4.09891C10.2935 4.40705 10.4961 4.70675 10.8085 4.7574Z" fill="#F47D0E"/>
<path d="M19.9768 8.82242C19.6011 6.61899 18.5627 4.61395 16.9671 3.01836C15.3715 1.42277 13.3665 0.384369 11.163 0.00868772C10.8549 -0.0461871 10.5636 0.16487 10.5088 0.473013C10.4581 0.785377 10.6649 1.07664 10.9773 1.13151C12.9444 1.46498 14.7383 2.39785 16.1651 3.82037C17.5918 5.24712 18.5205 7.0411 18.8539 9.00815C18.9004 9.28675 19.141 9.48092 19.4154 9.48092C19.4491 9.48092 19.4787 9.4767 19.5124 9.47248C19.8206 9.42604 20.0316 9.13056 19.9768 8.82242Z" fill="#F47D0E"/>
</g>
<defs>
<clipPath id="clip0">
<rect width="20" height="20" fill="white"/>
</clipPath>
</defs>
</svg>
